<?xml version="1.0" encoding="UTF-8"?> <svg xmlns="http://www.w3.org/2000/svg" xmlns:xlink="http://www.w3.org/1999/xlink" version="1.1" id="Слой_1" x="0px" y="0px" viewBox="0 0 1678.5 269.8" style="enable-background:new 0 0 1678.5 269.8;" xml:space="preserve"> <path d="M252.8,188.4c-12.6,14.7-28.6,22-48.1,22c-27.7,0-45.7-15-45.7-37.6c0-23.2,17.1-38.5,46-44.5c9.3-2.1,25-4.2,47.2-6.6 v-10.8c0-16.5-14.1-28.9-33.7-28.9c-18.9,0-32.5,9.3-32.5,21.7c0,1.5,0.3,2.7,0.6,3.9L164,112c-0.9-2.4-1.2-5.4-1.2-9 c0-24.7,24.1-43,57.4-43c32.2,0,55.9,20.2,55.9,47.8v71c0,6,4.2,10.5,10.2,10.5c8.1,0,13.8-10.5,13.8-24.7l20.5,4.8 c0,23.5-15.9,40.9-36.7,40.9C268.1,210.4,255.5,201.3,252.8,188.4 M252.2,166.5V140c-22,2.7-37.9,5.4-47.8,8.1 c-12.9,3.6-20.5,12.3-20.5,22c0,11.7,9.3,19.6,23.5,19.6C225.1,189.6,241.6,180.9,252.2,166.5"></path> <polygon points="553.9,163.8 523.9,74.7 523.9,207.4 502.2,207.4 502.2,63 544.9,63 573.8,149.9 601.8,63 644.2,63 644.2,207.4 622.5,207.4 622.5,75 591.2,163.8 "></polygon> <polygon points="783.4,207.4 783.4,75 720.8,207.4 684.1,207.4 684.1,63 707,63 707,185.4 765.6,63 806.2,63 806.2,207.4 "></polygon> <path d="M952.3,207.4L896.1,146h-26.2c0,34.6,0,55,0.3,61.4h-24.1c0.3-14.4,0.3-38.5,0.3-72.2s0-57.7-0.3-72.2h24.1 c-0.3,12.3-0.3,32.5-0.3,60.8h26.8L951.1,63h30.1l-62.9,70.1l67.7,74.3L952.3,207.4L952.3,207.4z"></path> <path d="M1126.2,165.9c-10.5,27.4-36.1,44.5-66.5,44.5c-41.2,0-71.9-31-71.9-75.2c0-43.9,30.7-75.2,71.9-75.2 c34.3,0,61.7,21.1,69.5,53.8L1107,121c-5.1-22.6-23.8-37.3-46.9-37.3c-28,0-48.7,21.7-48.7,51.4c0,29.8,20.8,51.4,48.7,51.4 c20.2,0,37-11.7,44.2-30.7L1126.2,165.9z"></path> <polygon points="100.3,207.2 100.3,144.6 24.5,144.6 24.5,207.2 0.4,207.2 0.4,62.8 24.5,62.8 24.5,122.4 100.3,122.4 100.3,62.8 124.3,62.8 124.3,207.2 "></polygon> <path d="M80.3,251.7c0,9.9-8,17.9-17.9,17.9s-17.9-8-17.9-17.9s8-17.9,17.9-17.9C72.3,233.8,80.3,241.8,80.3,251.7"></path> <path d="M80.3,18.4c0,9.9-8,17.9-17.9,17.9s-17.9-8-17.9-17.9s8-17.9,17.9-17.9S80.3,8.5,80.3,18.4"></path> <path d="M436.6,0.4c0,20.1-16.2,36-36.3,36c-19.5,0-36.3-15.9-36.3-36h18.7c0,22.9,35.1,22.9,35.1,0C417.8,0.4,436.6,0.4,436.6,0.4z "></path> <polygon points="438.5,207.7 438.5,75.4 376,207.7 339.3,207.7 339.3,63.3 362.1,63.3 362.1,185.7 420.8,63.3 461.4,63.3 461.4,207.7 "></polygon> <g> <path d="M1172.2,88.8c0-16.3,11.8-28.2,27.9-28.2c13.5,0,23.7,8.2,26.3,20.8h-9.8c-2.6-7.3-8.7-11.5-16.4-11.5 c-10.5,0-18.1,7.5-18.1,19c0,11.4,7.6,19,18.1,19c8.2,0,14.2-4.5,16.6-12.3h9.9c-2.6,13-12.8,21.5-26.3,21.5 C1183.9,117,1172.2,105.3,1172.2,88.8z"></path> <path d="M1233.8,61.7h31.8v9.1h-22.1v13.2h20.1v8.9h-20.1v14h22.9v9.1h-32.7V61.7z"></path> <path d="M1294.8,61.7c11.2,0,18.9,7.7,18.9,18.2c0,10.4-7.7,18.1-18.9,18.1h-10.4v17.9h-9.8V61.7H1294.8z M1294,89 c6.1,0,9.8-3.7,9.8-9.1c0-5.5-3.7-9.1-9.8-9.1h-9.5V89H1294z"></path> <path d="M1359.5,100.6c0,8.7-6.7,15.3-17.7,15.3h-21.8V61.7h21.5c10.5,0,16.5,6,16.5,14.3c0,4.9-2.5,9.3-6.6,11.8 C1356.6,89.9,1359.5,94.6,1359.5,100.6z M1340.7,70.4h-10.9v13.4h10.9c4.7,0,7.4-2.6,7.4-6.7C1348.2,73.1,1345.5,70.4,1340.7,70.4z M1341.3,107.1c5.3,0,8.3-2.9,8.3-7.4s-2.9-7.4-8.3-7.4h-11.5v14.9H1341.3z"></path> <path d="M1376.5,98.9l24.9-37.2h9.3v54.2h-9.8V78.7l-24.9,37.2h-9.3V61.7h9.8V98.9z"></path> <path d="M1418.1,88.8c0-16.3,11.8-28.2,27.9-28.2c13.5,0,23.7,8.2,26.3,20.8h-9.8c-2.6-7.3-8.7-11.5-16.4-11.5 c-10.5,0-18.1,7.5-18.1,19c0,11.4,7.6,19,18.1,19c8.2,0,14.2-4.5,16.6-12.3h9.9c-2.6,13-12.8,21.5-26.3,21.5 C1429.8,117,1418.1,105.3,1418.1,88.8z"></path> <path d="M1174.8,154.6h42.5v54.2h-9.8v-45h-22.9v45h-9.8V154.6z"></path> <path d="M1224.8,181.8c0-16,12.1-28.2,28.7-28.2c16.5,0,28.7,12.2,28.7,28.2S1270,210,1253.5,210 C1236.9,210,1224.8,197.8,1224.8,181.8z M1272.2,181.8c0-10.9-8.1-19-18.7-19c-10.8,0-18.8,8.1-18.8,19s8.1,19,18.8,19 C1264.1,200.7,1272.2,192.7,1272.2,181.8z"></path> <path d="M1330.6,199.7h6v19.4h-9.5v-10.3h-35.2v10.3h-9.6v-19.4h4.4c5-3.5,6-10.4,8.9-45.1h35.1V199.7z M1304.3,163.8 c-1.9,23.5-3.3,31.8-7.3,35.9h23.7v-35.9H1304.3z"></path> <path d="M1362.8,154.6c11.2,0,18.9,7.7,18.9,18.2c0,10.4-7.7,18.1-18.9,18.1h-10.4v17.9h-9.8v-54.2H1362.8z M1361.9,182 c6.1,0,9.8-3.7,9.8-9.1c0-5.5-3.7-9.1-9.8-9.1h-9.5V182H1361.9z"></path> <path d="M1420.8,208.9l-4.5-11.2H1393l-4.4,11.2h-10.5l21.8-54.2h9.6l21.8,54.2H1420.8z M1396.2,188.9h16.9l-8.4-21.8L1396.2,188.9 z"></path> <path d="M1455.9,175.2c11.1,0,18.1,7,18.1,16.7c0,9.9-7,16.9-18.1,16.9h-20.2v-54.2h34.2v8.9h-24.5v11.7H1455.9z M1455,200 c5.8,0,9.1-3.2,9.1-7.9s-3.3-8-9.1-8h-9.6V200H1455z"></path> <path d="M1478,181.8c0-16,12.1-28.2,28.7-28.2c16.5,0,28.7,12.2,28.7,28.2s-12.2,28.2-28.7,28.2C1490.1,210,1478,197.8,1478,181.8z M1525.4,181.8c0-10.9-8.1-19-18.7-19c-10.8,0-18.8,8.1-18.8,19s8.1,19,18.8,19C1517.4,200.7,1525.4,192.7,1525.4,181.8z"></path> <path d="M1536.4,154.6h41v9.2h-15.6v45h-9.8v-45h-15.6V154.6z"></path> <path d="M1615.2,208.9l-16-23.3h-6.1v23.3h-9.8v-54.2h9.8v21.8h6.4l14.5-21.8h11.5l-18,26.2l19.6,28H1615.2z"></path> <path d="M1640.7,191.8l24.9-37.2h9.3v54.2h-9.8v-37.2l-24.9,37.2h-9.3v-54.2h9.8V191.8z"></path> </g> </svg> 